<?xml version="1.0" encoding="UTF-8" standalone="no"?>
<!DOCTYPE svg PUBLIC "-//W3C//DTD SVG 1.1//EN"
 "http://www.w3.org/Graphics/SVG/1.1/DTD/svg11.dtd">
<!-- Generated by graphviz version 2.38.0 (20140413.2041)
 -->
<!-- Title: structs Pages: 1 -->
<svg width="1565pt" height="588pt"
 viewBox="0.00 0.00 1565.00 588.00" xmlns="http://www.w3.org/2000/svg" xmlns:xlink="http://www.w3.org/1999/xlink">
<g id="graph0" class="graph" transform="scale(1 1) rotate(0) translate(4 584)">
<title>structs</title>
<g id="a_graph0"><a xlink:title="after">
<text text-anchor="middle" x="778.5" y="-7.8" font-family="Times New Roman,serif" font-size="14.00">after</text>
</a>
</g>
<!-- 130 -->
<g id="node1" class="node"><title>130</title>
<path fill="yellow" stroke="black" d="M345,-455.5C345,-455.5 416,-455.5 416,-455.5 422,-455.5 428,-461.5 428,-467.5 428,-467.5 428,-479.5 428,-479.5 428,-485.5 422,-491.5 416,-491.5 416,-491.5 345,-491.5 345,-491.5 339,-491.5 333,-485.5 333,-479.5 333,-479.5 333,-467.5 333,-467.5 333,-461.5 339,-455.5 345,-455.5"/>
<text text-anchor="middle" x="380.5" y="-471" font-family="Cascadia Code" font-size="10.00">*ast.FuncDecl</text>
</g>
<!-- 127 -->
<g id="node2" class="node"><title>127</title>
<path fill="pink" stroke="black" d="M476,-313.5C476,-313.5 636,-313.5 636,-313.5 642,-313.5 648,-319.5 648,-325.5 648,-325.5 648,-415.5 648,-415.5 648,-421.5 642,-427.5 636,-427.5 636,-427.5 476,-427.5 476,-427.5 470,-427.5 464,-421.5 464,-415.5 464,-415.5 464,-325.5 464,-325.5 464,-319.5 470,-313.5 476,-313.5"/>
<text text-anchor="middle" x="556" y="-415.5" font-family="Cascadia Code" font-size="10.00">FuncDecl</text>
<polyline fill="none" stroke="black" points="464,-408.5 648,-408.5 "/>
<text text-anchor="middle" x="481.5" y="-396.5" font-family="Cascadia Code" font-size="10.00">Doc</text>
<polyline fill="none" stroke="black" points="499,-389.5 499,-408.5 "/>
<text text-anchor="middle" x="573.5" y="-396.5" font-family="Cascadia Code" font-size="10.00">*ast.CommentGroup(nil)</text>
<polyline fill="none" stroke="black" points="464,-389.5 648,-389.5 "/>
<text text-anchor="middle" x="487.5" y="-377.5" font-family="Cascadia Code" font-size="10.00">Recv</text>
<polyline fill="none" stroke="black" points="511,-370.5 511,-389.5 "/>
<text text-anchor="middle" x="579.5" y="-377.5" font-family="Cascadia Code" font-size="10.00">*ast.FieldList(nil)</text>
<polyline fill="none" stroke="black" points="464,-370.5 648,-370.5 "/>
<text text-anchor="middle" x="556" y="-358.5" font-family="Cascadia Code" font-size="10.00">Name</text>
<polyline fill="none" stroke="black" points="464,-351.5 648,-351.5 "/>
<text text-anchor="middle" x="556" y="-339.5" font-family="Cascadia Code" font-size="10.00">Type</text>
<polyline fill="none" stroke="black" points="464,-332.5 648,-332.5 "/>
<text text-anchor="middle" x="556" y="-320.5" font-family="Cascadia Code" font-size="10.00">Body</text>
</g>
<!-- 130&#45;&gt;127 -->
<g id="edge1" class="edge"><title>130:name&#45;&gt;127:name</title>
<path fill="none" stroke="black" d="M428.445,-455.203C443.739,-444.81 442.548,-426.77 454.192,-420.623"/>
<polygon fill="black" stroke="black" points="454.967,-424.036 464,-418.5 453.486,-417.195 454.967,-424.036"/>
</g>
<!-- 128 -->
<g id="node4" class="node"><title>128</title>
<path fill="palegreen" stroke="black" d="M696,-369.5C696,-369.5 790,-369.5 790,-369.5 796,-369.5 802,-375.5 802,-381.5 802,-381.5 802,-433.5 802,-433.5 802,-439.5 796,-445.5 790,-445.5 790,-445.5 696,-445.5 696,-445.5 690,-445.5 684,-439.5 684,-433.5 684,-433.5 684,-381.5 684,-381.5 684,-375.5 690,-369.5 696,-369.5"/>
<text text-anchor="middle" x="743" y="-433.5" font-family="Cascadia Code" font-size="10.00">Ident</text>
<polyline fill="none" stroke="black" points="684,-426.5 802,-426.5 "/>
<text text-anchor="middle" x="719.5" y="-414.5" font-family="Cascadia Code" font-size="10.00">NamePos</text>
<polyline fill="none" stroke="black" points="755,-407.5 755,-426.5 "/>
<text text-anchor="middle" x="778.5" y="-414.5" font-family="Cascadia Code" font-size="10.00">284</text>
<polyline fill="none" stroke="black" points="684,-407.5 802,-407.5 "/>
<text text-anchor="middle" x="704.5" y="-395.5" font-family="Cascadia Code" font-size="10.00">Name</text>
<polyline fill="none" stroke="black" points="725,-388.5 725,-407.5 "/>
<text text-anchor="middle" x="763.5" y="-395.5" font-family="Cascadia Code" font-size="10.00">&quot;revision&quot;</text>
<polyline fill="none" stroke="black" points="684,-388.5 802,-388.5 "/>
<text text-anchor="middle" x="743" y="-376.5" font-family="Cascadia Code" font-size="10.00">Obj</text>
</g>
<!-- 127&#45;&gt;128 -->
<g id="edge13" class="edge"><title>127:f2&#45;&gt;128:name</title>
<path fill="none" stroke="black" d="M648,-360.5C681.288,-360.5 654.191,-420.784 674.269,-433.971"/>
<polygon fill="black" stroke="black" points="673.441,-437.372 684,-436.5 675.202,-430.597 673.441,-437.372"/>
</g>
<!-- 131 -->
<g id="node10" class="node"><title>131</title>
<path fill="pink" stroke="black" d="M717,-274.5C717,-274.5 769,-274.5 769,-274.5 775,-274.5 781,-280.5 781,-286.5 781,-286.5 781,-338.5 781,-338.5 781,-344.5 775,-350.5 769,-350.5 769,-350.5 717,-350.5 717,-350.5 711,-350.5 705,-344.5 705,-338.5 705,-338.5 705,-286.5 705,-286.5 705,-280.5 711,-274.5 717,-274.5"/>
<text text-anchor="middle" x="743" y="-338.5" font-family="Cascadia Code" font-size="10.00">FuncType</text>
<polyline fill="none" stroke="black" points="705,-331.5 781,-331.5 "/>
<text text-anchor="middle" x="725.5" y="-319.5" font-family="Cascadia Code" font-size="10.00">Func</text>
<polyline fill="none" stroke="black" points="746,-312.5 746,-331.5 "/>
<text text-anchor="middle" x="763.5" y="-319.5" font-family="Cascadia Code" font-size="10.00">279</text>
<polyline fill="none" stroke="black" points="705,-312.5 781,-312.5 "/>
<text text-anchor="middle" x="743" y="-300.5" font-family="Cascadia Code" font-size="10.00">Params</text>
<polyline fill="none" stroke="black" points="705,-293.5 781,-293.5 "/>
<text text-anchor="middle" x="743" y="-281.5" font-family="Cascadia Code" font-size="10.00">Results</text>
</g>
<!-- 127&#45;&gt;131 -->
<g id="edge14" class="edge"><title>127:f3&#45;&gt;131:name</title>
<path fill="none" stroke="black" d="M648,-341.5C669,-341.5 676.711,-341.5 693.558,-341.5"/>
<polygon fill="black" stroke="black" points="694,-345 704,-341.5 694,-338 694,-345"/>
</g>
<!-- 140 -->
<g id="node15" class="node"><title>140</title>
<path fill="skyblue" stroke="black" d="M711,-131.5C711,-131.5 775,-131.5 775,-131.5 781,-131.5 787,-137.5 787,-143.5 787,-143.5 787,-195.5 787,-195.5 787,-201.5 781,-207.5 775,-207.5 775,-207.5 711,-207.5 711,-207.5 705,-207.5 699,-201.5 699,-195.5 699,-195.5 699,-143.5 699,-143.5 699,-137.5 705,-131.5 711,-131.5"/>
<text text-anchor="middle" x="743" y="-195.5" font-family="Cascadia Code" font-size="10.00">BlockStmt</text>
<polyline fill="none" stroke="black" points="699,-188.5 787,-188.5 "/>
<text text-anchor="middle" x="725.5" y="-176.5" font-family="Cascadia Code" font-size="10.00">Lbrace</text>
<polyline fill="none" stroke="black" points="752,-169.5 752,-188.5 "/>
<text text-anchor="middle" x="769.5" y="-176.5" font-family="Cascadia Code" font-size="10.00">299</text>
<polyline fill="none" stroke="black" points="699,-169.5 787,-169.5 "/>
<text text-anchor="middle" x="725.5" y="-157.5" font-family="Cascadia Code" font-size="10.00">List</text>
<polyline fill="none" stroke="black" points="752,-150.5 752,-169.5 "/>
<text text-anchor="middle" x="769.5" y="-157.5" font-family="Cascadia Code" font-size="10.00">0</text>
<polyline fill="none" stroke="black" points="699,-150.5 787,-150.5 "/>
<text text-anchor="middle" x="725.5" y="-138.5" font-family="Cascadia Code" font-size="10.00">Rbrace</text>
<polyline fill="none" stroke="black" points="752,-131.5 752,-150.5 "/>
<text text-anchor="middle" x="769.5" y="-138.5" font-family="Cascadia Code" font-size="10.00">313</text>
</g>
<!-- 127&#45;&gt;140 -->
<g id="edge15" class="edge"><title>127:f4&#45;&gt;140:name</title>
<path fill="none" stroke="black" d="M648,-322.5C703.593,-322.5 646.919,-213.969 688.04,-199.979"/>
<polygon fill="black" stroke="black" points="688.623,-203.431 698,-198.5 687.594,-196.507 688.623,-203.431"/>
</g>
<!-- 129 -->
<g id="node3" class="node"><title>129</title>
<path fill="lightpink" stroke="black" d="M850,-416.5C850,-416.5 986,-416.5 986,-416.5 992,-416.5 998,-422.5 998,-428.5 998,-428.5 998,-518.5 998,-518.5 998,-524.5 992,-530.5 986,-530.5 986,-530.5 850,-530.5 850,-530.5 844,-530.5 838,-524.5 838,-518.5 838,-518.5 838,-428.5 838,-428.5 838,-422.5 844,-416.5 850,-416.5"/>
<text text-anchor="middle" x="918" y="-518.5" font-family="Cascadia Code" font-size="10.00">Object</text>
<polyline fill="none" stroke="black" points="838,-511.5 998,-511.5 "/>
<text text-anchor="middle" x="882.5" y="-499.5" font-family="Cascadia Code" font-size="10.00">Kind</text>
<polyline fill="none" stroke="black" points="927,-492.5 927,-511.5 "/>
<text text-anchor="middle" x="962.5" y="-499.5" font-family="Cascadia Code" font-size="10.00">5</text>
<polyline fill="none" stroke="black" points="838,-492.5 998,-492.5 "/>
<text text-anchor="middle" x="869" y="-480.5" font-family="Cascadia Code" font-size="10.00">Name</text>
<polyline fill="none" stroke="black" points="900,-473.5 900,-492.5 "/>
<text text-anchor="middle" x="949" y="-480.5" font-family="Cascadia Code" font-size="10.00">&quot;revision&quot;</text>
<polyline fill="none" stroke="black" points="838,-473.5 998,-473.5 "/>
<text text-anchor="middle" x="918" y="-461.5" font-family="Cascadia Code" font-size="10.00">Decl</text>
<polyline fill="none" stroke="black" points="838,-454.5 998,-454.5 "/>
<text text-anchor="middle" x="858.5" y="-442.5" font-family="Cascadia Code" font-size="10.00">Data</text>
<polyline fill="none" stroke="black" points="879,-435.5 879,-454.5 "/>
<text text-anchor="middle" x="938.5" y="-442.5" font-family="Cascadia Code" font-size="10.00">interface {}(nil)</text>
<polyline fill="none" stroke="black" points="838,-435.5 998,-435.5 "/>
<text text-anchor="middle" x="858.5" y="-423.5" font-family="Cascadia Code" font-size="10.00">Type</text>
<polyline fill="none" stroke="black" points="879,-416.5 879,-435.5 "/>
<text text-anchor="middle" x="938.5" y="-423.5" font-family="Cascadia Code" font-size="10.00">interface {}(nil)</text>
</g>
<!-- 129&#45;&gt;130 -->
<g id="edge2" class="edge"><title>129:f2&#45;&gt;130:name</title>
<path fill="none" stroke="black" d="M838,-463.5C694.285,-463.5 525.236,-468.493 438.417,-471.423"/>
<polygon fill="black" stroke="black" points="438.119,-467.931 428.244,-471.77 438.357,-474.927 438.119,-467.931"/>
</g>
<!-- 128&#45;&gt;129 -->
<g id="edge3" class="edge"><title>128:f2&#45;&gt;129:name</title>
<path fill="none" stroke="black" d="M802,-378.5C863.698,-378.5 783.052,-505.233 828.069,-520.085"/>
<polygon fill="black" stroke="black" points="827.606,-523.554 838,-521.5 828.594,-516.624 827.606,-523.554"/>
</g>
<!-- 132 -->
<g id="node5" class="node"><title>132</title>
<path fill="lemonchiffon" stroke="black" d="M859,-311.5C859,-311.5 977,-311.5 977,-311.5 983,-311.5 989,-317.5 989,-323.5 989,-323.5 989,-375.5 989,-375.5 989,-381.5 983,-387.5 977,-387.5 977,-387.5 859,-387.5 859,-387.5 853,-387.5 847,-381.5 847,-375.5 847,-375.5 847,-323.5 847,-323.5 847,-317.5 853,-311.5 859,-311.5"/>
<text text-anchor="middle" x="918" y="-375.5" font-family="Cascadia Code" font-size="10.00">FieldList</text>
<polyline fill="none" stroke="black" points="847,-368.5 989,-368.5 "/>
<text text-anchor="middle" x="888.5" y="-356.5" font-family="Cascadia Code" font-size="10.00">Opening</text>
<polyline fill="none" stroke="black" points="930,-349.5 930,-368.5 "/>
<text text-anchor="middle" x="959.5" y="-356.5" font-family="Cascadia Code" font-size="10.00">292</text>
<polyline fill="none" stroke="black" points="847,-349.5 989,-349.5 "/>
<text text-anchor="middle" x="867.5" y="-337.5" font-family="Cascadia Code" font-size="10.00">List</text>
<polyline fill="none" stroke="black" points="888,-330.5 888,-349.5 "/>
<text text-anchor="middle" x="938.5" y="-337.5" font-family="Cascadia Code" font-size="10.00">[]*ast.Field{}</text>
<polyline fill="none" stroke="black" points="847,-330.5 989,-330.5 "/>
<text text-anchor="middle" x="888.5" y="-318.5" font-family="Cascadia Code" font-size="10.00">Closing</text>
<polyline fill="none" stroke="black" points="930,-311.5 930,-330.5 "/>
<text text-anchor="middle" x="959.5" y="-318.5" font-family="Cascadia Code" font-size="10.00">293</text>
</g>
<!-- 138 -->
<g id="node6" class="node"><title>138</title>
<path fill="palegreen" stroke="black" d="M1421,-137.5C1421,-137.5 1545,-137.5 1545,-137.5 1551,-137.5 1557,-143.5 1557,-149.5 1557,-149.5 1557,-201.5 1557,-201.5 1557,-207.5 1551,-213.5 1545,-213.5 1545,-213.5 1421,-213.5 1421,-213.5 1415,-213.5 1409,-207.5 1409,-201.5 1409,-201.5 1409,-149.5 1409,-149.5 1409,-143.5 1415,-137.5 1421,-137.5"/>
<text text-anchor="middle" x="1483" y="-201.5" font-family="Cascadia Code" font-size="10.00">Ident</text>
<polyline fill="none" stroke="black" points="1409,-194.5 1557,-194.5 "/>
<text text-anchor="middle" x="1452" y="-182.5" font-family="Cascadia Code" font-size="10.00">NamePos</text>
<polyline fill="none" stroke="black" points="1495,-175.5 1495,-194.5 "/>
<text text-anchor="middle" x="1526" y="-182.5" font-family="Cascadia Code" font-size="10.00">295</text>
<polyline fill="none" stroke="black" points="1409,-175.5 1557,-175.5 "/>
<text text-anchor="middle" x="1444.5" y="-163.5" font-family="Cascadia Code" font-size="10.00">Name</text>
<polyline fill="none" stroke="black" points="1480,-156.5 1480,-175.5 "/>
<text text-anchor="middle" x="1518.5" y="-163.5" font-family="Cascadia Code" font-size="10.00">&quot;int&quot;</text>
<polyline fill="none" stroke="black" points="1409,-156.5 1557,-156.5 "/>
<text text-anchor="middle" x="1426.5" y="-144.5" font-family="Cascadia Code" font-size="10.00">Obj</text>
<polyline fill="none" stroke="black" points="1444,-137.5 1444,-156.5 "/>
<text text-anchor="middle" x="1500.5" y="-144.5" font-family="Cascadia Code" font-size="10.00">*ast.Object(nil)</text>
</g>
<!-- 139 -->
<g id="node7" class="node"><title>139</title>
<path fill="palegreen" stroke="black" d="M1299,-186.5C1299,-186.5 1352,-186.5 1352,-186.5 1358,-186.5 1364,-192.5 1364,-198.5 1364,-198.5 1364,-210.5 1364,-210.5 1364,-216.5 1358,-222.5 1352,-222.5 1352,-222.5 1299,-222.5 1299,-222.5 1293,-222.5 1287,-216.5 1287,-210.5 1287,-210.5 1287,-198.5 1287,-198.5 1287,-192.5 1293,-186.5 1299,-186.5"/>
<text text-anchor="middle" x="1325.5" y="-202" font-family="Cascadia Code" font-size="10.00">*ast.Ident</text>
</g>
<!-- 139&#45;&gt;138 -->
<g id="edge4" class="edge"><title>139:name&#45;&gt;138:name</title>
<path fill="none" stroke="black" d="M1364.16,-204.5C1375.08,-204.5 1387.17,-204.5 1398.87,-204.5"/>
<polygon fill="black" stroke="black" points="1399,-208 1409,-204.5 1399,-201 1399,-208"/>
</g>
<!-- 136 -->
<g id="node8" class="node"><title>136</title>
<path fill="lemonchiffon" stroke="black" d="M1046,-157.5C1046,-157.5 1230,-157.5 1230,-157.5 1236,-157.5 1242,-163.5 1242,-169.5 1242,-169.5 1242,-259.5 1242,-259.5 1242,-265.5 1236,-271.5 1230,-271.5 1230,-271.5 1046,-271.5 1046,-271.5 1040,-271.5 1034,-265.5 1034,-259.5 1034,-259.5 1034,-169.5 1034,-169.5 1034,-163.5 1040,-157.5 1046,-157.5"/>
<text text-anchor="middle" x="1138" y="-259.5" font-family="Cascadia Code" font-size="10.00">Field</text>
<polyline fill="none" stroke="black" points="1034,-252.5 1242,-252.5 "/>
<text text-anchor="middle" x="1057.5" y="-240.5" font-family="Cascadia Code" font-size="10.00">Doc</text>
<polyline fill="none" stroke="black" points="1081,-233.5 1081,-252.5 "/>
<text text-anchor="middle" x="1161.5" y="-240.5" font-family="Cascadia Code" font-size="10.00">*ast.CommentGroup(nil)</text>
<polyline fill="none" stroke="black" points="1034,-233.5 1242,-233.5 "/>
<text text-anchor="middle" x="1072.5" y="-221.5" font-family="Cascadia Code" font-size="10.00">Names</text>
<polyline fill="none" stroke="black" points="1111,-214.5 1111,-233.5 "/>
<text text-anchor="middle" x="1176.5" y="-221.5" font-family="Cascadia Code" font-size="10.00">[]*ast.Ident{}</text>
<polyline fill="none" stroke="black" points="1034,-214.5 1242,-214.5 "/>
<text text-anchor="middle" x="1138" y="-202.5" font-family="Cascadia Code" font-size="10.00">Type</text>
<polyline fill="none" stroke="black" points="1034,-195.5 1242,-195.5 "/>
<text text-anchor="middle" x="1063.5" y="-183.5" font-family="Cascadia Code" font-size="10.00">Tag</text>
<polyline fill="none" stroke="black" points="1093,-176.5 1093,-195.5 "/>
<text text-anchor="middle" x="1167.5" y="-183.5" font-family="Cascadia Code" font-size="10.00">*ast.BasicLit(nil)</text>
<polyline fill="none" stroke="black" points="1034,-176.5 1242,-176.5 "/>
<text text-anchor="middle" x="1063.5" y="-164.5" font-family="Cascadia Code" font-size="10.00">Comment</text>
<polyline fill="none" stroke="black" points="1093,-157.5 1093,-176.5 "/>
<text text-anchor="middle" x="1167.5" y="-164.5" font-family="Cascadia Code" font-size="10.00">*ast.CommentGroup(nil)</text>
</g>
<!-- 136&#45;&gt;139 -->
<g id="edge5" class="edge"><title>136:f2&#45;&gt;139:name</title>
<path fill="none" stroke="black" d="M1242,-204.5C1253.21,-204.5 1265.27,-204.5 1276.64,-204.5"/>
<polygon fill="black" stroke="black" points="1276.84,-208 1286.84,-204.5 1276.84,-201 1276.84,-208"/>
</g>
<!-- 134 -->
<g id="node9" class="node"><title>134</title>
<path fill="lemonchiffon" stroke="black" d="M889,-216.5C889,-216.5 947,-216.5 947,-216.5 953,-216.5 959,-222.5 959,-228.5 959,-228.5 959,-280.5 959,-280.5 959,-286.5 953,-292.5 947,-292.5 947,-292.5 889,-292.5 889,-292.5 883,-292.5 877,-286.5 877,-280.5 877,-280.5 877,-228.5 877,-228.5 877,-222.5 883,-216.5 889,-216.5"/>
<text text-anchor="middle" x="918" y="-280.5" font-family="Cascadia Code" font-size="10.00">FieldList</text>
<polyline fill="none" stroke="black" points="877,-273.5 959,-273.5 "/>
<text text-anchor="middle" x="906.5" y="-261.5" font-family="Cascadia Code" font-size="10.00">Opening</text>
<polyline fill="none" stroke="black" points="936,-254.5 936,-273.5 "/>
<text text-anchor="middle" x="947.5" y="-261.5" font-family="Cascadia Code" font-size="10.00">0</text>
<polyline fill="none" stroke="black" points="877,-254.5 959,-254.5 "/>
<text text-anchor="middle" x="902" y="-242.5" font-family="Cascadia Code" font-size="10.00">List</text>
<polyline fill="none" stroke="black" points="927,-235.5 927,-254.5 "/>
<text text-anchor="middle" x="943" y="-242.5" font-family="Cascadia Code" font-size="10.00">0</text>
<polyline fill="none" stroke="black" points="877,-235.5 959,-235.5 "/>
<text text-anchor="middle" x="906.5" y="-223.5" font-family="Cascadia Code" font-size="10.00">Closing</text>
<polyline fill="none" stroke="black" points="936,-216.5 936,-235.5 "/>
<text text-anchor="middle" x="947.5" y="-223.5" font-family="Cascadia Code" font-size="10.00">0</text>
</g>
<!-- 134&#45;&gt;136 -->
<g id="edge6" class="edge"><title>134:135index0&#45;&gt;136:name</title>
<path fill="none" stroke="black" d="M960,-244.5C990.146,-244.5 998.444,-258.778 1023.81,-261.901"/>
<polygon fill="black" stroke="black" points="1023.81,-265.407 1034,-262.5 1024.22,-258.419 1023.81,-265.407"/>
</g>
<!-- 131&#45;&gt;132 -->
<g id="edge7" class="edge"><title>131:f1&#45;&gt;132:name</title>
<path fill="none" stroke="black" d="M782,-302.5C822.364,-302.5 805.515,-365.999 836.045,-376.913"/>
<polygon fill="black" stroke="black" points="835.574,-380.382 846,-378.5 836.676,-373.469 835.574,-380.382"/>
</g>
<!-- 131&#45;&gt;134 -->
<g id="edge8" class="edge"><title>131:f2&#45;&gt;134:name</title>
<path fill="none" stroke="black" d="M782,-283.5C820.188,-283.5 832.196,-283.5 865.884,-283.5"/>
<polygon fill="black" stroke="black" points="866,-287 876,-283.5 866,-280 866,-287"/>
</g>
<!-- 144 -->
<g id="node11" class="node"><title>144</title>
<path fill="cyan" stroke="black" d="M1445,-23.5C1445,-23.5 1521,-23.5 1521,-23.5 1527,-23.5 1533,-29.5 1533,-35.5 1533,-35.5 1533,-87.5 1533,-87.5 1533,-93.5 1527,-99.5 1521,-99.5 1521,-99.5 1445,-99.5 1445,-99.5 1439,-99.5 1433,-93.5 1433,-87.5 1433,-87.5 1433,-35.5 1433,-35.5 1433,-29.5 1439,-23.5 1445,-23.5"/>
<text text-anchor="middle" x="1483" y="-87.5" font-family="Cascadia Code" font-size="10.00">BasicLit</text>
<polyline fill="none" stroke="black" points="1433,-80.5 1533,-80.5 "/>
<text text-anchor="middle" x="1465.5" y="-68.5" font-family="Cascadia Code" font-size="10.00">ValuePos</text>
<polyline fill="none" stroke="black" points="1498,-61.5 1498,-80.5 "/>
<text text-anchor="middle" x="1515.5" y="-68.5" font-family="Cascadia Code" font-size="10.00">310</text>
<polyline fill="none" stroke="black" points="1433,-61.5 1533,-61.5 "/>
<text text-anchor="middle" x="1462.5" y="-49.5" font-family="Cascadia Code" font-size="10.00">Kind</text>
<polyline fill="none" stroke="black" points="1492,-42.5 1492,-61.5 "/>
<text text-anchor="middle" x="1512.5" y="-49.5" font-family="Cascadia Code" font-size="10.00">5</text>
<polyline fill="none" stroke="black" points="1433,-42.5 1533,-42.5 "/>
<text text-anchor="middle" x="1461" y="-30.5" font-family="Cascadia Code" font-size="10.00">Value</text>
<polyline fill="none" stroke="black" points="1489,-23.5 1489,-42.5 "/>
<text text-anchor="middle" x="1511" y="-30.5" font-family="Cascadia Code" font-size="10.00">&quot;1&quot;</text>
</g>
<!-- 145 -->
<g id="node12" class="node"><title>145</title>
<path fill="cyan" stroke="black" d="M1290,-72.5C1290,-72.5 1361,-72.5 1361,-72.5 1367,-72.5 1373,-78.5 1373,-84.5 1373,-84.5 1373,-96.5 1373,-96.5 1373,-102.5 1367,-108.5 1361,-108.5 1361,-108.5 1290,-108.5 1290,-108.5 1284,-108.5 1278,-102.5 1278,-96.5 1278,-96.5 1278,-84.5 1278,-84.5 1278,-78.5 1284,-72.5 1290,-72.5"/>
<text text-anchor="middle" x="1325.5" y="-88" font-family="Cascadia Code" font-size="10.00">*ast.BasicLit</text>
</g>
<!-- 145&#45;&gt;144 -->
<g id="edge9" class="edge"><title>145:name&#45;&gt;144:name</title>
<path fill="none" stroke="black" d="M1373.21,-90.5C1388.43,-90.5 1405.57,-90.5 1421.94,-90.5"/>
<polygon fill="black" stroke="black" points="1422,-94.0001 1432,-90.5 1422,-87.0001 1422,-94.0001"/>
</g>
<!-- 142 -->
<g id="node13" class="node"><title>142</title>
<path fill="magenta" stroke="black" d="M1106,-81C1106,-81 1170,-81 1170,-81 1176,-81 1182,-87 1182,-93 1182,-93 1182,-126 1182,-126 1182,-132 1176,-138 1170,-138 1170,-138 1106,-138 1106,-138 1100,-138 1094,-132 1094,-126 1094,-126 1094,-93 1094,-93 1094,-87 1100,-81 1106,-81"/>
<text text-anchor="middle" x="1138" y="-126" font-family="Cascadia Code" font-size="10.00">ReturnStmt</text>
<polyline fill="none" stroke="black" points="1094,-119 1182,-119 "/>
<text text-anchor="middle" x="1120.5" y="-107" font-family="Cascadia Code" font-size="10.00">Return</text>
<polyline fill="none" stroke="black" points="1147,-100 1147,-119 "/>
<text text-anchor="middle" x="1164.5" y="-107" font-family="Cascadia Code" font-size="10.00">303</text>
<polyline fill="none" stroke="black" points="1094,-100 1182,-100 "/>
<text text-anchor="middle" x="1125" y="-88" font-family="Cascadia Code" font-size="10.00">Results</text>
<polyline fill="none" stroke="black" points="1156,-81 1156,-100 "/>
<text text-anchor="middle" x="1169" y="-88" font-family="Cascadia Code" font-size="10.00">0</text>
</g>
<!-- 142&#45;&gt;145 -->
<g id="edge10" class="edge"><title>142:143index0&#45;&gt;145:name</title>
<path fill="none" stroke="black" d="M1183,-90.5C1210.96,-90.5 1242,-90.5 1267.95,-90.5"/>
<polygon fill="black" stroke="black" points="1268,-94.0001 1278,-90.5 1268,-87.0001 1268,-94.0001"/>
</g>
<!-- 146 -->
<g id="node14" class="node"><title>146</title>
<path fill="magenta" stroke="black" d="M876.5,-127.5C876.5,-127.5 959.5,-127.5 959.5,-127.5 965.5,-127.5 971.5,-133.5 971.5,-139.5 971.5,-139.5 971.5,-151.5 971.5,-151.5 971.5,-157.5 965.5,-163.5 959.5,-163.5 959.5,-163.5 876.5,-163.5 876.5,-163.5 870.5,-163.5 864.5,-157.5 864.5,-151.5 864.5,-151.5 864.5,-139.5 864.5,-139.5 864.5,-133.5 870.5,-127.5 876.5,-127.5"/>
<text text-anchor="middle" x="918" y="-143" font-family="Cascadia Code" font-size="10.00">*ast.ReturnStmt</text>
</g>
<!-- 146&#45;&gt;142 -->
<g id="edge11" class="edge"><title>146:name&#45;&gt;142:name</title>
<path fill="none" stroke="black" d="M971.871,-137.548C1003.58,-133.486 1044.8,-129.257 1082.88,-128.591"/>
<polygon fill="black" stroke="black" points="1083.03,-132.09 1093,-128.5 1082.97,-125.09 1083.03,-132.09"/>
</g>
<!-- 140&#45;&gt;146 -->
<g id="edge12" class="edge"><title>140:141index0&#45;&gt;146:name</title>
<path fill="none" stroke="black" d="M788,-159.5C809.654,-159.5 833.22,-157.556 854.267,-155.117"/>
<polygon fill="black" stroke="black" points="854.874,-158.569 864.378,-153.886 854.028,-151.62 854.874,-158.569"/>
</g>
<!-- 147 -->
<g id="node16" class="node"><title>147</title>
<path fill="yellow" stroke="black" d="M345,-400.5C345,-400.5 416,-400.5 416,-400.5 422,-400.5 428,-406.5 428,-412.5 428,-412.5 428,-424.5 428,-424.5 428,-430.5 422,-436.5 416,-436.5 416,-436.5 345,-436.5 345,-436.5 339,-436.5 333,-430.5 333,-424.5 333,-424.5 333,-412.5 333,-412.5 333,-406.5 339,-400.5 345,-400.5"/>
<text text-anchor="middle" x="380.5" y="-416" font-family="Cascadia Code" font-size="10.00">*ast.FuncDecl</text>
</g>
<!-- 147&#45;&gt;127 -->
<g id="edge16" class="edge"><title>147:name&#45;&gt;127:name</title>
<path fill="none" stroke="black" d="M428.189,-418.5C436.514,-418.5 445.241,-418.5 453.757,-418.5"/>
<polygon fill="black" stroke="black" points="454,-422 464,-418.5 454,-415 454,-422"/>
</g>
<!-- 3 -->
<g id="node17" class="node"><title>3</title>
<path fill="wheat" stroke="black" d="M232,-409C232,-409 285,-409 285,-409 291,-409 297,-415 297,-421 297,-421 297,-492 297,-492 297,-498 291,-504 285,-504 285,-504 232,-504 232,-504 226,-504 220,-498 220,-492 220,-492 220,-421 220,-421 220,-415 226,-409 232,-409"/>
<text text-anchor="middle" x="258.5" y="-492" font-family="Cascadia Code" font-size="10.00">[]ast.Decl</text>
<polyline fill="none" stroke="black" points="220,-485 297,-485 "/>
<text text-anchor="middle" x="258.5" y="-473" font-family="Cascadia Code" font-size="10.00">0</text>
<polyline fill="none" stroke="black" points="220,-466 297,-466 "/>
<text text-anchor="middle" x="258.5" y="-454" font-family="Cascadia Code" font-size="10.00">1</text>
<polyline fill="none" stroke="black" points="220,-447 297,-447 "/>
<text text-anchor="middle" x="258.5" y="-435" font-family="Cascadia Code" font-size="10.00">2</text>
<polyline fill="none" stroke="black" points="220,-428 297,-428 "/>
<text text-anchor="middle" x="258.5" y="-416" font-family="Cascadia Code" font-size="10.00">3</text>
</g>
<!-- 3&#45;&gt;147 -->
<g id="edge17" class="edge"><title>3:3index3&#45;&gt;147:name</title>
<path fill="none" stroke="black" d="M297,-418.5C305.336,-418.5 314.139,-418.5 322.78,-418.5"/>
<polygon fill="black" stroke="black" points="322.811,-422 332.811,-418.5 322.811,-415 322.811,-422"/>
</g>
<!-- 1 -->
<g id="node18" class="node"><title>1</title>
<path fill="orangered" stroke="black" d="M12,-389.5C12,-389.5 172,-389.5 172,-389.5 178,-389.5 184,-395.5 184,-401.5 184,-401.5 184,-567.5 184,-567.5 184,-573.5 178,-579.5 172,-579.5 172,-579.5 12,-579.5 12,-579.5 6,-579.5 0,-573.5 0,-567.5 0,-567.5 0,-401.5 0,-401.5 0,-395.5 6,-389.5 12,-389.5"/>
<text text-anchor="middle" x="92" y="-567.5" font-family="Cascadia Code" font-size="10.00">File</text>
<polyline fill="none" stroke="black" points="0,-560.5 184,-560.5 "/>
<text text-anchor="middle" x="17.5" y="-548.5" font-family="Cascadia Code" font-size="10.00">Doc</text>
<polyline fill="none" stroke="black" points="35,-541.5 35,-560.5 "/>
<text text-anchor="middle" x="109.5" y="-548.5" font-family="Cascadia Code" font-size="10.00">*ast.CommentGroup(nil)</text>
<polyline fill="none" stroke="black" points="0,-541.5 184,-541.5 "/>
<text text-anchor="middle" x="55" y="-529.5" font-family="Cascadia Code" font-size="10.00">Package</text>
<polyline fill="none" stroke="black" points="110,-522.5 110,-541.5 "/>
<text text-anchor="middle" x="147" y="-529.5" font-family="Cascadia Code" font-size="10.00">1</text>
<polyline fill="none" stroke="black" points="0,-522.5 184,-522.5 "/>
<text text-anchor="middle" x="92" y="-510.5" font-family="Cascadia Code" font-size="10.00">Name</text>
<polyline fill="none" stroke="black" points="0,-503.5 184,-503.5 "/>
<text text-anchor="middle" x="92" y="-491.5" font-family="Cascadia Code" font-size="10.00">Decls</text>
<polyline fill="none" stroke="black" points="0,-484.5 184,-484.5 "/>
<text text-anchor="middle" x="92" y="-472.5" font-family="Cascadia Code" font-size="10.00">Scope</text>
<polyline fill="none" stroke="black" points="0,-465.5 184,-465.5 "/>
<text text-anchor="middle" x="55" y="-444" font-family="Cascadia Code" font-size="10.00">Imports</text>
<polyline fill="none" stroke="black" points="110,-427.5 110,-465.5 "/>
<text text-anchor="middle" x="147" y="-453.5" font-family="Cascadia Code" font-size="10.00">0</text>
<polyline fill="none" stroke="black" points="110,-446.5 184,-446.5 "/>
<text text-anchor="middle" x="147" y="-434.5" font-family="Cascadia Code" font-size="10.00">1</text>
<polyline fill="none" stroke="black" points="0,-427.5 184,-427.5 "/>
<text text-anchor="middle" x="92" y="-415.5" font-family="Cascadia Code" font-size="10.00">Unresolved</text>
<polyline fill="none" stroke="black" points="0,-408.5 184,-408.5 "/>
<text text-anchor="middle" x="56.5" y="-396.5" font-family="Cascadia Code" font-size="10.00">Comments</text>
<polyline fill="none" stroke="black" points="113,-389.5 113,-408.5 "/>
<text text-anchor="middle" x="148.5" y="-396.5" font-family="Cascadia Code" font-size="10.00">0</text>
</g>
<!-- 1&#45;&gt;3 -->
<g id="edge18" class="edge"><title>1:f3&#45;&gt;3:name</title>
<path fill="none" stroke="black" d="M184,-494.5C196,-494.5 201.25,-494.5 209.875,-494.5"/>
<polygon fill="black" stroke="black" points="210,-498 220,-494.5 210,-491 210,-498"/>
</g>
</g>
</svg>
